:SAMPLES-PER-SECOND 30
:FULLY-SPECIFIED
:DEGREES
215
root  -8.18138 25.5714 -3.6184 -122.872 -43.1508 7.30664
RightUpLeg  62.7065 47.3622 -57.3929
RightLeg  76.8196 1.89294 8.15019
RightFoot  -38.5915 0.439817 2.90565
RightToes  -1.16417e-010 0 -3.6325e-017
Spine  151.293 43.4412 0.198482
Spine1  52.983 19.185 -12.6765
HEad  -34.0942 -43.1003 -7.28148
LeftShoulder1  1.38946 -6.0862 -6.84584
LeftArm  -20.5767 -31.1256 -33.5703
LeftForeArm  19.845 -6.48113 -1.07875
LeftHand  -0.0103091 10.5871 1.12865
RightShoulder  -0.41011 -4.85423 23.4234
RightArm  9.78854 19.1502 63.9012
RightForeArm  70.4674 79.0851 63.2863
RightHand  -0.147366 4.55228 -2.00782
LeftUpLeg  62.5804 14.7668 -36.878
LeftLeg  75.19 -0.889122 -2.65369
LeftFoot  -28.8127 -0.430639 -3.92909
LeftToes  1.47335e-010 -1.29615e-010 3.08757e-011
216
root  -8.37136 25.3285 -3.54137 -128.646 -43.6716 7.98291
RightUpLeg  66.2936 51.8922 -54.7529
RightLeg  76.9708 2.01716 8.88907
RightFoot  -38.7597 0.223637 2.00464
RightToes  -1.16417e-010 0 -3.6325e-017
Spine  34.9088 10.1648 -159.29
Spine1  -114.355 40.0871 -148.024
HEad  -32.7911 -43.0299 -8.47679
LeftShoulder1  1.38538 -5.985 -6.97088
LeftArm  -20.9372 -33.6794 -33.3467
LeftForeArm  20.2967 -7.79877 -1.27622
LeftHand  0.046204 9.41682 2.64988
RightShoulder  -0.362926 -4.71926 22.8569
RightArm  8.99635 19.561 63.8439
RightForeArm  69.7084 79.0131 62.5391
RightHand  -0.12437 4.49758 -1.75183
LeftUpLeg  67.3078 17.8839 -35.2853
LeftLeg  75.0073 -0.847302 -2.42547
LeftFoot  -28.9991 -0.502101 -4.35514
LeftToes  1.47335e-010 -1.29615e-010 3.08757e-011
217
root  -8.43311 25.1242 -3.49506 -131.1 -43.758 7.75659
RightUpLeg  68.3738 53.9987 -53.2717
RightLeg  77.3795 2.01961 9.23918
RightFoot  -38.8253 0.108743 1.53252
RightToes  -1.16417e-010 0 -3.6325e-017
Spine  52.986 39.5987 -125.454
Spine1  -106.493 82.5514 -151.791
HEad  -30.989 -42.1908 -9.67653
LeftShoulder1  1.37939 -6.02166 -6.83719
LeftArm  -20.7223 -36.2419 -32.1979
LeftForeArm  21.4055 -9.23673 -1.96557
LeftHand  -0.0202306 9.99235 0.818545
RightShoulder  -0.387697 -4.80105 22.9166
RightArm  8.32946 19.7451 63.8059
RightForeArm  69.9008 79.0322 62.7459
RightHand  -0.161169 4.17397 -2.23093
LeftUpLeg  69.3427 19.2678 -34.9149
LeftLeg  75.4436 -0.735149 -2.02048
LeftFoot  -28.9869 -0.504056 -4.36985
LeftToes  1.47335e-010 -1.29615e-010 3.08757e-011
218
root  -8.56636 24.9726 -3.46842 -134.246 -44.1582 7.6991
RightUpLeg  71.355 56.4293 -51.1005
RightLeg  77.4892 2.11113 9.81936
RightFoot  -38.9792 -0.0168623 1.01701
RightToes  -1.16417e-010 0 -3.6325e-017
Spine  127.795 53.9094 -33.1915
Spine1  34.2546 32.2927 -26.547
HEad  -29.4115 -42.3426 -10.3624
LeftShoulder1  1.38789 -6.05745 -6.87629
LeftArm  -20.5956 -38.2722 -30.3721
LeftForeArm  21.647 -11.1487 -2.75426
LeftHand  -0.028485 10.6173 0.637086
RightShoulder  -0.361144 -4.71603 22.7825
RightArm  7.75082 19.8442 63.878
RightForeArm  69.1669 78.9693 62.2063
RightHand  -0.152689 4.8111 -2.02917
LeftUpLeg  72.4111 20.7407 -33.8614
LeftLeg  75.4907 -0.710103 -1.91375
LeftFoot  -29.1316 -0.515914 -4.41477
LeftToes  1.47335e-010 -1.29615e-010 3.08757e-011
219
root  -8.55042 24.7491 -3.42051 -135.33 -43.775 7.04309
RightUpLeg  72.2622 57.8881 -50.7905
RightLeg  78.0495 2.09957 10.2979
RightFoot  -39.114 -0.0457609 0.90093
RightToes  -1.16417e-010 0 -3.6325e-017
Spine  124.964 53.1682 -38.9865
Spine1  37.7038 36.5546 -22.1459
HEad  -28.0903 -42.8932 -10.9377
LeftShoulder1  1.38659 -6.0858 -6.81283
LeftArm  -20.9674 -40.8322 -29.2797
LeftForeArm  22.5377 -12.5842 -2.96699
LeftHand  -0.0072404 8.98824 1.26244
RightShoulder  -0.381041 -4.7879 22.6916
RightArm  7.12372 20.0841 63.3848
RightForeArm  70.7721 79.1054 63.3949
RightHand  -0.127336 4.52462 -1.78253
LeftUpLeg  73.0008 21.7059 -34.2913
LeftLeg  76.3036 -0.604583 -1.55259
LeftFoot  -29.2222 -0.565819 -4.71267
LeftToes  1.47335e-010 -1.29615e-010 3.08757e-011
220
root  -8.64699 24.6139 -3.31103 -138.024 -44.2125 6.63727
RightUpLeg  73.6235 60.636 -50.5322
RightLeg  78.0513 2.41894 12.0429
RightFoot  -38.76 -0.377837 -0.473431
RightToes  -1.16417e-010 0 -3.6325e-017
Spine  137.143 46.4752 -25.1495
Spine1  43.3879 26.971 -21.0688
HEad  -26.9592 -42.8279 -11.736
LeftShoulder1  1.38154 -6.03078 -6.84697
LeftArm  -21.7564 -42.8832 -27.7508
LeftForeArm  23.588 -14.6365 -3.03622
LeftHand  0.00512762 8.33697 1.94385
RightShoulder  -0.3579 -4.72482 22.2963
RightArm  6.38443 20.1509 63.5295
RightForeArm  71.2293 79.1677 64.3626
RightHand  -0.174144 4.13693 -2.38687
LeftUpLeg  75.8545 23.1269 -33.3591
LeftLeg  76.5213 -0.525815 -1.19807
LeftFoot  -29.2898 -0.575065 -4.75593
LeftToes  1.47335e-010 -1.29615e-010 3.08757e-011
